# xmcd CD database file
#
# Track frame offsets:
#	183
#	15338
#	32453
#	48200
#	64533
#	80845
#	97420
#	112918
#	131063
#	156133
#	171703
#	190908
#	210135
#	225878
#	242113
#
# Disc length: 3489 seconds
#
# Revision: 7
# Processed by: cddbd v1.5.2PL0 Copyright (c) Steve Scherf et al.
# Submitted via: CDex 1.70beta2
#
DISCID=bb0d9f0f
DTITLE=Various Artist - Sahnestuecke '92 - Die 30 Besten Stuecke [CD1)
DYEAR=1992
DGENRE=Pop-Folk
TTITLE0=Connie Francis - Jive Connie
TTITLE1=Nicole - Mit Dir Vielleicht...
TTITLE2=Wolfgang Petry - Wieso Und Weshalb...
TTITLE3=Howard Carpendale - Ohne Dich
TTITLE4=Milva - Ich Weiss Es Selber Nicht Genau
TTITLE5=Matthias Reim - Warum
TTITLE6=Juergen Drews - Wo Bist Du?
TTITLE7=Valere's Garten - Naechstes Mal Am Ende Der Welt
TTITLE8=Stefan Waggershausen - Rikki Und Rosi
TTITLE9=Dirk Busch - Sie Beisst Und Kratzt
TTITLE10=Mario Jordan - Liebe Ist...
TTITLE11=Ireen Sheer and Bernhard Brink - Du Gehst Fort
TTITLE12=Roger Whittaker - Du Wirst Alle Jahre Schoener
TTITLE13=Nicki - Des Geht Vorbei
TTITLE14=Valere's Garten - Wenn Du Willst
EXTD=YEAR: 1992
EXTT0=
EXTT1=
EXTT2=
EXTT3=
EXTT4=
EXTT5=
EXTT6=
EXTT7=
EXTT8=
EXTT9=
EXTT10=
EXTT11=
EXTT12=
EXTT13=
EXTT14=
PLAYORDER=
